PathFileType	4	(x/y/z)	S02_M20_T14
DataRate	CameraRate	NumFrames	NumMarkers	Units	OrigDataRate	OrigDataStartFrame	OrigNumFrames
240	240	6	51	mm	240	346	460
Frame#	Time	Sternum			R.Acromium			L.Acromium			Top.Head			R.ASIS			L.ASIS			R.PSIS			L.PSIS			R.Great.Tro			L.Great.Tro			R.Iliac.Crest			L.Iliac.Crest			V.Sacral			R.Thigh.Upper.Post			R.Thigh.Lower.Ant			R.Thigh.Lower.Post			R.Thigh.Upper.Ant			R.Knee.Lat			R.Knee.Med			R.Shank.Upper.Post			R.Shank.Lower.Ant			R.Shank.Lower.Post			R.Shank.Upper.Ant			R.Ankle.Lat			R.Ankle.Med			R.Heel.Upper			R.Heel.Med			R.Heel.Lat			R.Toe.Lat			R.Toe.Med			R.Toe.Tip			L.Thigh.Upper.Post			L.Thigh.Lower.Ant			L.Thigh.Lower.Post			L.Thigh.Upper.Ant			L.Knee.Lat			L.Knee.Med			L.Shank.Upper.Post			L.Shank.Lower.Ant			L.Shank.Lower.Post			L.Shank.Upper.Ant			L.Ankle.Lat			L.Ankle.Med			L.Heel.Upper			L.Heel.Med			L.Heel.Lat			L.Toe.Lat			L.Toe.Med			L.Toe.Tip			Cervical.Spine			Back			
		X1	Y1	Z1	X2	Y2	Z2	X3	Y3	Z3	X4	Y4	Z4	X5	Y5	Z5	X6	Y6	Z6	X7	Y7	Z7	X8	Y8	Z8	X9	Y9	Z9	X10	Y10	Z10	X11	Y11	Z11	X12	Y12	Z12	X13	Y13	Z13	X14	Y14	Z14	X15	Y15	Z15	X16	Y16	Z16	X17	Y17	Z17	X18	Y18	Z18	X19	Y19	Z19	X20	Y20	Z20	X21	Y21	Z21	X22	Y22	Z22	X23	Y23	Z23	X24	Y24	Z24	X25	Y25	Z25	X26	Y26	Z26	X27	Y27	Z27	X28	Y28	Z28	X29	Y29	Z29	X30	Y30	Z30	X31	Y31	Z31	X32	Y32	Z32	X33	Y33	Z33	X34	Y34	Z34	X35	Y35	Z35	X36	Y36	Z36	X37	Y37	Z37	X38	Y38	Z38	X39	Y39	Z39	X40	Y40	Z40	X41	Y41	Z41	X42	Y42	Z42	X43	Y43	Z43	X44	Y44	Z44	X45	Y45	Z45	X46	Y46	Z46	X47	Y47	Z47	X48	Y48	Z48	X49	Y49	Z49	X50	Y50	Z50	X51	Y51	Z51	

346	1.4375	366.84	1081.9	333.17	256.61	1318.4	470.58	245.22	1311.1	176.73	279.71	1602.7	297.3	326.18	887.53	452.91	356.74	895.76	235.95	117.89	928.15	375.8	119.77	937.83	301.26	241.82	765.68	529.93	257.43	819.41	138.72	223.86	937.08	503.44	237.83	949.75	161.4	94.376	887.16	325.78	237.5	576.8	526.6	292.84	492.5	510.24	219.91	488.5	513.62	306.24	580.94	519.52	226.36	412.22	509.3	243.67	386.27	367.98	27.094	350.63	474.04	0.3501	243.81	464.16	-30.051	304.72	463.17	55.331	284.49	483.78	-97.039	233.86	450.24	-69.429	230.88	367.93	-121.01	283.61	389.77	-140.16	262.67	355.79	-155.91	270.15	418.66	-117.34	116.2	465.96	-87.72	88.402	362.56	-56.24	52.556	424.21	291.39	586.71	170.43	387.69	536.14	188.91	316.19	503.5	199.56	353.89	621.2	160.91	392.95	452.96	205.8	377.92	457.19	341.08	313.9	279.51	210.34	382.49	194.23	233.84	311.32	207.18	229.35	378.22	268.4	214.65	335.39	95.404	245.81	341.69	94.449	330.21	272.57	66.508	283.6	281.13	41.187	317.93	277.91	38.49	255.84	444.73	34.891	227.38	465.41	44.089	337.57	526.06	59.679	291.55	171.36	1374.1	326.94	103.69	1120.6	345.59
347	1.4417	371.78	1082.9	333.12	261.47	1319.6	470.46	250.35	1312.1	176.44	284.88	1603.9	297.21	331.21	888.87	452.88	361.62	896.38	235.79	122.85	929.49	375.35	124.8	939.17	300.8	247.31	767.07	529.63	261.68	820.14	138.58	228.63	938.38	503.06	243.08	950.76	161.11	99.281	888.51	325.3	246.07	578.09	526.94	302.33	494.37	510.67	229.45	489.57	514.05	314.74	582.97	519.79	236.88	413.36	509.69	254.16	387.75	368.22	38.095	350.97	474.05	11.923	244.03	464.06	-18.802	304.78	463.1	66.674	284.98	483.75	-85.48	233.85	449.91	-57.798	230.89	367.83	-110.59	282.66	389.13	-129.29	261.09	355.31	-145.19	268.73	418.11	-103.47	116.12	466.55	-73.327	88.097	363.4	-41.146	53.46	425.31	293.77	587.32	170.6	389.72	535.98	188.72	317.99	503.92	199.66	356.52	621.28	160.81	394.33	452.81	205.61	379.97	457.18	341.01	314.59	279.68	210.36	382.87	194.15	233.75	311.76	207.37	229.39	378.87	268.33	214.57	335.47	95.482	245.84	341.76	94.522	330.23	272.6	66.591	283.62	281.16	41.255	317.95	277.93	38.583	255.84	444.74	34.891	227.37	465.44	44.079	337.57	526.09	59.631	291.54	176.46	1375.2	326.61	108.76	1121.8	344.95
348	1.4458	376.69	1083.9	333.1	266.31	1320.7	470.34	255.46	1313.1	176.17	290.04	1605.1	297.15	336.22	890.23	452.86	366.47	897.01	235.65	127.78	930.88	374.92	129.8	940.53	300.35	252.77	768.5	529.36	265.83	820.87	138.46	233.37	939.71	502.69	248.31	951.76	160.83	104.15	889.9	324.85	254.64	579.43	527.27	311.81	496.31	511.06	239	490.7	514.46	323.21	585.06	520.06	247.4	414.56	510.05	264.65	389.33	368.43	49.122	351.21	474.07	23.623	244.13	463.96	-7.4808	304.7	463.05	78.104	285.4	483.71	-73.795	233.64	449.59	-46.062	230.72	367.75	-100.1	281.46	388.53	-118.32	259.26	354.88	-134.37	267.02	417.61	-89.356	115.85	467.14	-58.692	87.664	364.25	-25.764	54.286	426.38	296.1	587.95	170.79	391.7	535.84	188.53	319.74	504.36	199.76	359.11	621.38	160.72	395.67	452.68	205.43	381.99	457.19	340.94	315.25	279.86	210.36	383.24	194.09	233.67	312.19	207.57	229.41	379.5	268.28	214.49	335.56	95.563	245.86	341.83	94.601	330.25	272.63	66.68	283.63	281.2	41.331	317.96	277.95	38.679	255.85	444.75	34.889	227.36	465.47	44.073	337.56	526.13	59.583	291.52	181.54	1376.4	326.29	113.8	1123	344.29
349	1.45	381.57	1084.9	333.09	271.11	1321.9	470.22	260.54	1314.1	175.92	295.18	1606.4	297.12	341.21	891.61	452.84	371.29	897.66	235.52	132.7	932.29	374.53	134.77	941.92	299.93	258.21	769.97	529.11	269.88	821.6	138.36	238.1	941.06	502.33	253.49	952.75	160.56	108.98	891.33	324.43	263.2	580.82	527.61	321.27	498.31	511.41	248.54	491.89	514.86	331.67	587.19	520.3	257.92	415.83	510.36	275.14	390.99	368.6	60.171	351.36	474.09	35.445	244.11	463.84	3.9079	304.46	463.01	89.618	285.74	483.65	-61.987	233.22	449.31	-34.222	230.39	367.68	-89.519	280.02	387.98	-107.24	257.18	354.49	-123.43	265.04	417.16	-75.009	115.4	467.75	-43.832	87.107	365.09	-10.123	55.029	427.43	298.39	588.6	170.97	393.62	535.71	188.35	321.44	504.83	199.86	361.64	621.5	160.64	396.96	452.57	205.25	383.96	457.2	340.87	315.89	280.04	210.35	383.6	194.05	233.59	312.6	207.78	229.43	380.1	268.24	214.41	335.65	95.648	245.87	341.89	94.687	330.25	272.66	66.775	283.64	281.23	41.415	317.96	277.98	38.778	255.85	444.76	34.885	227.35	465.51	44.067	337.56	526.17	59.534	291.49	186.59	1377.6	325.97	118.81	1124.2	343.63
350	1.4542	386.42	1085.9	333.1	275.88	1323.1	470.1	265.61	1315.1	175.68	300.31	1607.6	297.12	346.17	893	452.83	376.07	898.33	235.4	137.61	933.73	374.16	139.72	943.33	299.54	263.64	771.47	528.88	273.84	822.34	138.28	242.83	942.45	501.98	258.61	953.72	160.32	113.78	892.78	324.06	271.74	582.24	527.94	330.72	500.38	511.73	258.07	493.15	515.23	340.1	589.38	520.54	268.44	417.16	510.63	285.62	392.73	368.74	71.24	351.4	474.13	47.386	243.98	463.72	15.362	304.08	462.99	101.21	286.01	483.58	-50.058	232.58	449.06	-22.279	229.87	367.63	-78.843	278.34	387.49	-96.046	254.88	354.16	-112.37	262.8	416.78	-60.447	114.77	468.35	-28.762	86.433	365.92	5.7499	55.687	428.44	300.64	589.28	171.17	395.49	535.61	188.18	323.09	505.32	199.96	364.13	621.63	160.57	398.21	452.49	205.08	385.87	457.23	340.8	316.5	280.23	210.31	383.95	194.02	233.52	313	207.99	229.44	380.69	268.23	214.33	335.73	95.736	245.88	341.96	94.779	330.25	272.69	66.875	283.65	281.26	41.507	317.97	278	38.882	255.85	444.77	34.88	227.33	465.54	44.063	337.55	526.21	59.484	291.47	191.62	1378.8	325.65	123.79	1125.4	342.97
351	1.4583	391.26	1087	333.12	280.63	1324.3	469.99	270.67	1316.1	175.45	305.43	1608.8	297.14	351.12	894.42	452.8	380.82	899.03	235.28	142.5	935.19	373.84	144.65	944.74	299.19	269.06	773	528.68	277.7	823.09	138.21	247.55	943.85	501.64	263.66	954.67	160.08	118.55	894.24	323.74	280.25	583.71	528.26	340.13	502.5	512.02	267.58	494.45	515.59	348.5	591.61	520.76	278.94	418.56	510.85	296.1	394.54	368.84	82.325	351.34	474.17	59.441	243.73	463.61	26.878	303.55	462.99	112.88	286.21	483.5	-38.01	231.74	448.86	-10.233	229.18	367.59	-68.064	276.42	387.05	-84.72	252.34	353.87	-101.18	260.29	416.46	-45.685	113.97	468.97	-13.498	85.647	366.75	21.832	56.261	429.43	302.85	589.97	171.36	397.33	535.51	188.02	324.7	505.84	200.05	366.57	621.78	160.51	399.43	452.42	204.92	387.7	457.25	340.72	317.09	280.43	210.27	384.28	194.02	233.44	313.39	208.22	229.44	381.25	268.23	214.25	335.82	95.826	245.9	342.02	94.876	330.25	272.73	66.981	283.65	281.29	41.607	317.97	278.03	38.989	255.85	444.78	34.873	227.32	465.58	44.059	337.54	526.24	59.433	291.44	196.63	1380	325.34	128.75	1126.6	342.3
